<svg xmlns="http://www.w3.org/2000/svg" viewBox="0 0 32 32">
  <path d="M16 0A16 16 0 0 0 0 16 16 16 0 1 0 16 0zM6 10h5.8c2.3 0 4 .8 4 3a2.6 2.6 0 0 1-1.7 2.4 2.9 2.9 0 0 1 2.2 3c0 2.4-2.1 3.4-4.3 3.4H6V10zm13.2.8h5v1.6h-5v-1.6zm2.1 2.3a4.4 4.4 0 0 1 .2 0c3 0 4.5 2.1 4.3 4.7h-6.4c0 1.5.8 2.4 2.2 2.4a2.3 2.3 0 0 0 2-1.3h2.2a4.6 4.6 0 0 1-8.9-1.4 4.4 4.4 0 0 1 4.4-4.4z"/>
  <path d="M8.5 14.7h3a1.4 1.4 0 0 0 1.6-1.4c0-1.1-.9-1.3-1.9-1.3H8.5zm0 5.2h3.1c1 0 2-.4 2-1.6 0-1.2-.8-1.6-2-1.6H8.5zm14.9-3.6c-.2-1.2-.8-1.5-2-1.5-1.5 0-2 .9-2 1.5z"/>
</svg>