<svg xmlns="http://www.w3.org/2000/svg" viewBox="0 0 539.08 539.08">
  <path d="M404.3 426.77h-22.45a11.22 11.22 0 1 1 0-22.46h22.46c30.97 0 56.15-25.18 56.15-56.16S435.28 292 404.31 292h-22.46a11.22 11.22 0 1 1 0-22.46h22.46c43.34 0 78.61 35.27 78.61 78.61s-35.27 78.62-78.61 78.62z"/>
  <path d="M336.92 539.08H134.77a56.21 56.21 0 0 1-56.15-56.16V235.85c0-6.21 5.02-11.23 11.23-11.23h218.01l50.78-91.23a44.5 44.5 0 0 1-9.76-14.4c-4.76-11.33-4.48-24.46.79-36.95 2.76-6.56 7.35-12.34 12.17-18.44 12.66-15.98 19.81-26.68 7.94-44.77a11.25 11.25 0 0 1 .2-12.63 11.2 11.2 0 0 1 11.82-4.45c32.51 7.87 55.52 30.78 63.13 62.87 6.85 28.93-.77 58.72-18.97 74.12a43.42 43.42 0 0 1-21.67 10.01l-28.65 75.87h6.2c6.22 0 11.24 5.02 11.24 11.23v247.07a56.2 56.2 0 0 1-56.16 56.16zm-235.84-292v235.84a33.73 33.73 0 0 0 33.69 33.7h202.15a33.73 33.73 0 0 0 33.7-33.7V247.08h-55.94c-.22-.03-.3-.01-.46 0H101.08zm232.49-22.47h18.05l29.46-78a61.23 61.23 0 0 1-3.42-1.2l-44.1 79.2zm46.57-102.8c1.27.75 2.65 1.43 4.1 2.05 10.88 4.56 20.05 3.78 27.22-2.26 11.52-9.76 16.4-31.54 11.6-51.8-3.68-15.6-12.37-28.24-24.76-36.7 1.27 19.05-10.31 33.68-18.84 44.44-3.86 4.88-7.53 9.48-9.08 13.22-2.94 6.98-3.23 13.75-.8 19.56a23.44 23.44 0 0 0 8.47 10.16 11.16 11.16 0 0 1 2.09 1.33z"/>
  <path d="M179.7 247.08h-67.4c-4.25 0-8.13-2.4-10.04-6.21l-33.6-67.21c-.6-1.13-.98-2.34-1.16-3.56l-11.2-67.18a11.2 11.2 0 0 1 4.77-11.12 11.1 11.1 0 0 1 12.1-.35L129.1 125c1.26.72 2.41 1.7 3.34 2.92l.03.03s-.03 0 .03.03l.02.04.02.03h.01l.01.03.02.01v.01c.34.45.62.9.87 1.37l56.06 100.92a11.22 11.22 0 0 1-9.82 16.68zm-60.45-22.47h41.36l-40.64-73.13-27.12 20.34 26.4 52.8zM82.47 123.23l4.19 25.17 16.78-12.58-20.97-12.59z"/>
  <path d="M292 247.08h-89.85c-6.2 0-11.23-5.03-11.23-11.23V11.23c0-6.2 5.03-11.23 11.23-11.23H292c6.2 0 11.23 5.02 11.23 11.23v224.62c0 6.2-5.02 11.23-11.23 11.23zm-78.62-22.47h67.39v-22.46h-11.23a11.22 11.22 0 1 1 0-22.46h11.23v-22.46h-33.7a11.22 11.22 0 1 1 0-22.46h33.7V112.3h-11.23a11.22 11.22 0 1 1 0-22.47h11.23V67.4h-33.7a11.22 11.22 0 1 1 0-22.47h33.7V22.46h-67.39v202.16z"/>
</svg>