<svg xmlns="http://www.w3.org/2000/svg" viewBox="0 0 539.1 539.1">
  <path d="M303.2 539h-67.4a11 11 0 0 1-10-6.3L91 252a11 11 0 0 1 .5-10.7l86.2-140-52.4-84A11.2 11.2 0 0 1 134.8 0H393a11.3 11.3 0 0 1 10 16.3l-42 84.2 86.6 140.7a11 11 0 0 1 .5 10.7L313.4 532.7a11.3 11.3 0 0 1-10.2 6.4zm-22.4-22.4h15.4l129-268.9L342 112.3H197.2l-83.3 135.4 129 269h15.4v-236a11.2 11.2 0 1 1 22.5 0v236zM197.2 89.8h144L375 22.5H155l42.2 67.3z"/>
  <path d="M269.5 292a56.2 56.2 0 1 1 .2-112.4 56.2 56.2 0 0 1-.2 112.4zm0-89.8a33.7 33.7 0 1 0 .1 67.4 33.7 33.7 0 0 0 0-67.4z"/>
</svg>