<?xml version="1.0" encoding="iso-8859-1"?>
<!-- Generator: Adobe Illustrator 19.0.0, SVG Export Plug-In . SVG Version: 6.00 Build 0)  -->
<svg version="1.1" id="Capa_1" xmlns="http://www.w3.org/2000/svg" xmlns:xlink="http://www.w3.org/1999/xlink" x="0px" y="0px"
	 viewBox="0 0 539.077 539.077" style="enable-background:new 0 0 539.077 539.077;" xml:space="preserve">
<g>
	<g>
		<path d="M303.232,539.077h-67.385c-4.321,0-8.259-2.479-10.123-6.361L90.955,251.936c-1.656-3.444-1.448-7.491,0.559-10.748
			l86.194-140.067L125.25,17.186c-2.172-3.466-2.281-7.831-0.307-11.395C126.928,2.215,130.69,0,134.77,0h258.308
			c3.883,0,7.502,2.018,9.564,5.33c2.04,3.312,2.215,7.447,0.483,10.924l-42.137,84.253l86.578,140.681
			c1.996,3.257,2.215,7.304,0.57,10.748l-134.769,280.78C311.479,536.598,307.553,539.077,303.232,539.077z M280.77,516.615h15.398
			l129.044-268.869l-83.331-135.438H197.197l-83.342,135.438L242.91,516.615h15.398V280.769c0-6.208,5.023-11.231,11.231-11.231
			c6.208,0,11.231,5.023,11.231,11.231V516.615z M197.154,89.846h144.07l33.692-67.385H155.038L197.154,89.846z"/>
		<path d="M269.539,292c-30.961,0-56.154-25.192-56.154-56.154s25.192-56.154,56.154-56.154c30.972,0,56.154,25.192,56.154,56.154
			S300.512,292,269.539,292z M269.539,202.154c-18.579,0-33.692,15.113-33.692,33.692s15.113,33.692,33.692,33.692
			c18.579,0,33.692-15.113,33.692-33.692S288.118,202.154,269.539,202.154z"/>
	</g>
</g>
<g>
</g>
<g>
</g>
<g>
</g>
<g>
</g>
<g>
</g>
<g>
</g>
<g>
</g>
<g>
</g>
<g>
</g>
<g>
</g>
<g>
</g>
<g>
</g>
<g>
</g>
<g>
</g>
<g>
</g>
</svg>
