<svg xmlns="http://www.w3.org/2000/svg" viewBox="0 0 538.7 538.7">
  <path d="M241.2 392.7c-105.3 0-191-85.6-191-190.9s85.7-191 191-191 191 85.7 191 191-85.7 191-191 191zm0-359.3A168.6 168.6 0 0 0 72.7 201.8c0 93 75.6 168.5 168.5 168.5s168.5-75.6 168.5-168.5S334 33.4 241.2 33.4zm11.2 460.4c-6.2 0-11.2-5-11.2-11.2a11.2 11.2 0 1 1-22.5 0v-33.7a11.2 11.2 0 1 1 22.5 0 11.2 11.2 0 1 1 22.5 0v33.7c0 6.2-5 11.2-11.3 11.2z"/>
  <path d="M375.5 538.7H106.8a11.2 11.2 0 0 1-6.7-20.2 233.8 233.8 0 0 1 282.2 0c3.8 2.9 5.4 8 3.9 12.5a11.3 11.3 0 0 1-10.7 7.7zm-229.3-22.4h190a214.6 214.6 0 0 0-190 0zm95-56.3a257.5 257.5 0 0 1-174.5-67.8l-8.2 8.1a11.2 11.2 0 1 1-15.8-15.8l15.2-15.3a18 18 0 0 1 1.3-1.3l15.2-15.2a11.2 11.2 0 1 1 16 15.9l-7.8 7.7a236.1 236.1 0 0 0 325.4-7.7 236.2 236.2 0 0 0 7.7-325.4l-7.7 7.7a11.2 11.2 0 1 1-16-15.8l31.8-31.8a11.2 11.2 0 1 1 16 15.9l-8.2 8a258.7 258.7 0 0 1-7.8 357.3A257.6 257.6 0 0 1 241.2 460z"/>
</svg>