<svg xmlns="http://www.w3.org/2000/svg" viewBox="0 0 32 32">
  <path d="M16 0A16 16 0 0 0 0 16a16 16 0 0 0 2.85 9.11 5.13 5.13 0 0 1 1.68-1.5c2.12-1.35 5-1.53 6.53-1.63a3.8 3.8 0 0 1-1.02-2.41 3.3 3.3 0 0 1 .34-1.39 10.65 10.65 0 0 1-1.1.07 5.5 5.5 0 0 1-5.67-5.56 6.46 6.46 0 0 1 2.18-4.75 9.1 9.1 0 0 1 5.92-1.96 9.1 9.1 0 0 1 .21.01h7.04l-2.18 1.28h-2.13a6 6 0 0 1 2.43 4.78c0 2.62-1.43 3.86-2.87 5.03a2.54 2.54 0 0 0-.96 1.74 1.95 1.95 0 0 0 .9 1.52l1.22 1c1.5 1.31 2.88 2.51 2.88 4.96 0 2.17-1.33 4.35-3.88 5.6A16 16 0 1 0 16 0zm5.91 6h2v3h3v2h-3v3h-2v-3h-3V9h3zM9.76 7.16a3.15 3.15 0 0 0-2.4 1.17 4.2 4.2 0 0 0-.74 2.62c0 2.38 1.33 6.31 4.27 6.31a3.43 3.43 0 0 0 2.33-.99 3.7 3.7 0 0 0 .85-2.59c0-2.55-1.47-6.52-4.31-6.52zm1.83 15.8a6.45 6.45 0 0 0-.15.01 13.08 13.08 0 0 0-3.59.57 3.93 3.93 0 0 0-2.95 3.65l.02.35a16 16 0 0 0 6.91 3.91c2.7-.28 4.12-1.78 4.12-3.77 0-1.81-1.12-2.76-3.72-4.68a6.45 6.45 0 0 0-.64-.03z"/>
</svg>