<?xml version="1.0" encoding="iso-8859-1"?>
<!-- Generator: Adobe Illustrator 19.0.0, SVG Export Plug-In . SVG Version: 6.00 Build 0)  -->
<svg version="1.1" id="Capa_1" xmlns="http://www.w3.org/2000/svg" xmlns:xlink="http://www.w3.org/1999/xlink" x="0px" y="0px"
	 viewBox="0 0 539.077 539.077" style="enable-background:new 0 0 539.077 539.077;" xml:space="preserve">
<g>
	<g>
		<path d="M393.077,539.077H146c-30.961,0-56.154-25.181-56.154-56.154V56.154C89.846,25.192,115.039,0,146,0h247.077
			c30.972,0,56.154,25.192,56.154,56.154v426.769C449.231,513.895,424.049,539.077,393.077,539.077z M112.308,449.231v33.692
			c0,18.579,15.113,33.692,33.692,33.692h247.077c18.579,0,33.692-15.113,33.692-33.692v-33.692H112.308z M112.308,426.769h314.462
			V112.308H112.308V426.769z M112.308,89.846h314.462V56.154c0-18.579-15.113-33.692-33.692-33.692H146
			c-18.579,0-33.692,15.113-33.692,33.692V89.846z M325.692,67.385H213.385c-6.208,0-11.231-5.023-11.231-11.231
			s5.023-11.231,11.231-11.231h112.308c6.208,0,11.231,5.023,11.231,11.231S331.9,67.385,325.692,67.385z"/>
		<path d="M269.538,505.385c-12.382,0-22.462-10.068-22.462-22.462c0-12.393,10.079-22.462,22.462-22.462
			c12.393,0,22.462,10.068,22.462,22.462C292,495.316,281.932,505.385,269.538,505.385z"/>
	</g>
</g>
<g>
</g>
<g>
</g>
<g>
</g>
<g>
</g>
<g>
</g>
<g>
</g>
<g>
</g>
<g>
</g>
<g>
</g>
<g>
</g>
<g>
</g>
<g>
</g>
<g>
</g>
<g>
</g>
<g>
</g>
</svg>
