<svg xmlns="http://www.w3.org/2000/svg" viewBox="0 0 32 32">
  <path d="M16 0A16 16 0 0 0 0 16 16 16 0 1 0 16 0zM8.58 7a1.67 1.67 0 0 1 1.2.47 1.57 1.57 0 0 1 0 2.26 1.55 1.55 0 0 1-1.13.46 1.62 1.62 0 0 1-1.16-.47 1.56 1.56 0 0 1-.48-1.15 1.52 1.52 0 0 1 .47-1.1A1.67 1.67 0 0 1 8.58 7zm11.56 3.94a5.03 5.03 0 0 1 3.51 1.28A4 4 0 0 1 25 15.44V23h-3.26v-4.81a11.3 11.3 0 0 0-.24-2.93 2.01 2.01 0 0 0-.83-1.11 2.69 2.69 0 0 0-1.46-.38 3.07 3.07 0 0 0-1.94.63 3.25 3.25 0 0 0-1.12 1.74 11.65 11.65 0 0 0-.16 2.5V23h-3.26V10.99H16v1.6a10.26 10.26 0 0 1 2.28-1.31 5.19 5.19 0 0 1 1.86-.34zM7 10.99h3.27V23H7z"/>
</svg>