<svg xmlns="http://www.w3.org/2000/svg" viewBox="0 0 53.5 72">
  <path d="M29.7 53a47 47 0 0 1-3.4 14.7c-.6 1.4-1.8 2.8-2.3 4.3h-.2v-1.1c.4-.7.2-1.6.4-2.5a21.4 21.4 0 0 0-.6-13.8c-3.3-6.3-9.8-4.2-16.2-6.8a12.4 12.4 0 0 1-5.7-5.5L.3 38.5a15 15 0 0 1 .7-8.2c3.1-8 10.9-11.7 20.3-7.2v-.7c-.8-1-.6-2.7-1-4.3-1-4.2-1.7-18 3-18.1 1.3 1 3.8.9 4 3a1.7 1.7 0 0 0-.5 1.3h.2v-.2c1-1 1.2-3.4 3-3.6 1.3 1.2 3.6 1.4 4 3.6a17.5 17.5 0 0 0-2.7 5.9h.5c1.4-2 7.3-7.3 10-6.8a14.1 14.1 0 0 1 2 4.3c-1.4.5-2 1.9-3.1 2.7-4 3-7.3 7.4-9.8 11.8h.6c1.6-1.3 8-1.9 10.8-1.2 7.2 1.8 9.2 4.3 10.9 11.6a13.4 13.4 0 0 1 .2 4.7c-2.2 9.5-6.8 14.2-16.4 16.3-2.6.6-5.1-.3-7.3-.4z"/>
</svg>