<?xml version="1.0" encoding="iso-8859-1"?>
<!-- Generator: Adobe Illustrator 19.0.0, SVG Export Plug-In . SVG Version: 6.00 Build 0)  -->
<svg version="1.1" id="Capa_1" xmlns="http://www.w3.org/2000/svg" xmlns:xlink="http://www.w3.org/1999/xlink" x="0px" y="0px"
	 viewBox="0 0 539.077 539.077" style="enable-background:new 0 0 539.077 539.077;" xml:space="preserve">
<g>
	<g>
		<path d="M269.538,539.077c-3.773,0-7.293-1.886-9.366-5.045c-6.964-10.529-170.326-258.988-170.326-354.34
			C89.846,80.611,170.458,0,269.538,0s179.692,80.611,179.692,179.692c0,95.352-163.373,343.811-170.326,354.34
			C276.821,537.19,273.311,539.077,269.538,539.077z M269.538,22.462c-86.698,0-157.231,70.532-157.231,157.231
			c0,76.279,122.047,272.5,157.231,327.469c35.184-54.969,157.231-251.212,157.231-327.469
			C426.769,92.994,356.226,22.462,269.538,22.462z"/>
		<path d="M269.538,258.308c-43.344,0-78.615-35.272-78.615-78.615s35.272-78.615,78.615-78.615s78.615,35.272,78.615,78.615
			S312.882,258.308,269.538,258.308z M269.538,123.538c-30.961,0-56.154,25.192-56.154,56.154s25.192,56.154,56.154,56.154
			c30.972,0,56.154-25.192,56.154-56.154S300.511,123.538,269.538,123.538z"/>
	</g>
</g>
<g>
</g>
<g>
</g>
<g>
</g>
<g>
</g>
<g>
</g>
<g>
</g>
<g>
</g>
<g>
</g>
<g>
</g>
<g>
</g>
<g>
</g>
<g>
</g>
<g>
</g>
<g>
</g>
<g>
</g>
</svg>
