<svg xmlns="http://www.w3.org/2000/svg" viewBox="0 0 539.08 539.08">
  <path d="M269.54 539.08c-3.78 0-7.3-1.89-9.37-5.05C253.21 523.5 89.85 275.04 89.85 179.7 89.85 80.61 170.45 0 269.54 0s179.69 80.61 179.69 179.7c0 95.34-163.37 343.8-170.33 354.33a11.2 11.2 0 0 1-9.36 5.05zm0-516.62C182.84 22.46 112.3 93 112.3 179.7c0 76.28 122.04 272.5 157.23 327.47 35.18-54.97 157.23-251.21 157.23-327.47 0-86.7-70.54-157.23-157.23-157.23z"/>
  <path d="M269.54 258.3c-43.35 0-78.62-35.26-78.62-78.6s35.28-78.62 78.62-78.62 78.61 35.27 78.61 78.61-35.27 78.62-78.61 78.62zm0-134.76c-30.96 0-56.16 25.19-56.16 56.15s25.2 56.16 56.16 56.16c30.97 0 56.15-25.2 56.15-56.16s-25.18-56.15-56.15-56.15z"/>
</svg>