<svg xmlns="http://www.w3.org/2000/svg" viewBox="0 0 539.1 539.1">
  <path d="M348.2 539H78.6a78.7 78.7 0 0 1 0-157.2h33.7V78.6A78.7 78.7 0 0 1 191 0h269.6c1 0 2.2.2 3.2.5 2.6-.3 5.3-.5 8-.5C511.4 0 539 32.3 539 78.6c0 6.2-5 11.2-11.3 11.2h-101v370.7a78.7 78.7 0 0 1-78.6 78.6zm0-134.7a56.2 56.2 0 1 0 56.1 56.2V67.4c0-17.3 6.5-33 17.2-45H191c-31 0-56.1 25.3-56.1 56.2v303.2h213.4a11.2 11.2 0 1 1 0 22.5zm-269.6 0a56.2 56.2 0 0 0 0 112.3h214.6a78.4 78.4 0 0 1 0-112.3H78.6zm348.2-337h89c-3.5-27.2-20.4-44.8-44.1-44.8a45 45 0 0 0-45 44.9zM325.7 337H202.2a11.2 11.2 0 1 1 0-22.4h123.5a11.2 11.2 0 1 1 0 22.4zm0-67.4H202.2a11.2 11.2 0 1 1 0-22.4h123.5a11.2 11.2 0 1 1 0 22.4zm0-67.3H202.2a11.2 11.2 0 1 1 0-22.5h123.5a11.2 11.2 0 1 1 0 22.5zm0-67.4H202.2a11.2 11.2 0 1 1 0-22.5h123.5a11.2 11.2 0 1 1 0 22.5z"/>
</svg>