<svg xmlns="http://www.w3.org/2000/svg" viewBox="0 0 512 512">
  <circle cx="256" cy="255.8" r="80"/>
  <path d="M177.8 176.9a111.4 111.4 0 0 1 158.4 0c13.4 13.5 23 29.6 28.2 47.6h84.1v-113c0-26.5-20.5-47-47-47h-288a48 48 0 0 0-49 47v113h85c5.3-18 14.9-34.2 28.3-47.6zm238.7-29.2c0 7-5.7 12.8-12.8 12.8h-38.4c-7 0-12.8-5.7-12.8-12.8v-38.4c0-7 5.7-12.8 12.8-12.8h38.4c7 0 12.8 5.7 12.8 12.8v38.4zm-80.3 187.6C315 356.4 286.9 368 257 368s-58-11.5-79.2-32.7a112.3 112.3 0 0 1-32.8-78.8H64.5v143c0 26.5 22.5 49 49 49h288a48 48 0 0 0 47-49v-143H369a112 112 0 0 1-32.8 78.8z"/>
</svg>