<svg xmlns="http://www.w3.org/2000/svg" viewBox="0 0 32 32">
  <path d="M16 0A16 16 0 0 0 0 16 16 16 0 1 0 16 0zm4.4 8.3A3.5 3.5 0 0 1 23 9.6a7 7 0 0 0 2.3-1 4 4 0 0 1-1.6 2.2 6.8 6.8 0 0 0 2.1-.6 7.8 7.8 0 0 1-1.8 2.1v.5c0 5.4-3.7 11.5-10.5 11.5a9.8 9.8 0 0 1-5.7-1.8 8.3 8.3 0 0 0 .9 0 7 7 0 0 0 4.6-1.7A3.8 3.8 0 0 1 9.9 18a3.3 3.3 0 0 0 .7 0 3.5 3.5 0 0 0 1 0 4 4 0 0 1-3-4 3.5 3.5 0 0 0 1.7.4 4.1 4.1 0 0 1-1.6-3.3 4.3 4.3 0 0 1 .5-2 10.2 10.2 0 0 0 7.6 4.2 4.6 4.6 0 0 1-.1-1 3.9 3.9 0 0 1 3.7-4z"/>
</svg>