<svg xmlns="http://www.w3.org/2000/svg" viewBox="0 0 539.08 539.08">
  <path d="M269.54 157.23c-43.35 0-78.62-35.27-78.62-78.61S226.2 0 269.54 0s78.61 35.27 78.61 78.61-35.27 78.62-78.61 78.62zm0-134.77c-30.96 0-56.16 25.2-56.16 56.16s25.2 56.15 56.16 56.15c30.97 0 56.15-25.2 56.15-56.15s-25.18-56.16-56.15-56.16zm0 516.62C138.87 539.08 0 503.65 0 438c0-53.39 92.07-84.3 178.23-95.42a11.23 11.23 0 1 1 2.88 22.29C76.96 378.3 22.46 411.83 22.46 438c0 37.18 101.47 78.61 247.08 78.61S516.6 475.19 516.6 438c0-26.17-54.48-59.69-158.6-73.13a11.24 11.24 0 0 1-9.7-12.6 11.1 11.1 0 0 1 12.59-9.69c86.14 11.15 178.18 42.05 178.18 95.42 0 65.65-138.87 101.08-269.54 101.08zm0-56.16c-62.57 0-168.46-10.64-168.46-50.54 0-19.85 25.75-34.39 76.53-43.27 6.12-1.25 11.92 3 13 9.12a11.22 11.22 0 0 1-9.14 12.99c-45.07 7.9-57.19 18.9-57.96 21.4 3.03 9.4 55.85 27.84 146.03 27.84s143-18.44 146.02-28.32c-.77-2.01-12.8-13-57.69-20.9a11.23 11.23 0 0 1-9.1-13c1.05-6.13 7-10.34 13-9.11 50.59 8.9 76.23 23.45 76.23 43.25 0 39.9-105.9 50.54-168.46 50.54zm33.7-56.15h-67.4c-6.2 0-11.22-5.02-11.22-11.23v-89.08c-43.84-21-67.39-83.92-67.39-135.54 0-6.2 5.02-11.23 11.23-11.23h202.16c6.2 0 11.23 5.02 11.23 11.23 0 51.62-23.56 114.55-67.39 135.54v89.08c0 6.2-5.02 11.23-11.23 11.23zm-56.16-22.46H292v-85.35c0-4.78 3-9.02 7.52-10.6 34.05-11.93 56.14-62.1 59.45-106.2H180.12c3.29 44.1 25.39 94.27 59.43 106.2a11.22 11.22 0 0 1 7.53 10.6v85.35z"/>
</svg>