<svg xmlns="http://www.w3.org/2000/svg" version="1" viewBox="0 0 483 483">
  <path d="M455 483H28c-6 0-11-5-11-11v-43c0-33 21-63 52-74l105-37v-53h23v61c0 4-3 9-8 10L77 376c-23 8-38 30-38 53v31h405v-31c0-23-15-45-38-53l-112-40c-5-1-8-6-8-10v-66h23v58l105 37c31 11 52 41 52 74v43c0 6-5 11-11 11z"/>
  <path d="M239 292c-68 0-124-65-124-146S171 0 239 0s123 65 123 146-55 146-123 146zm0-270c-56 0-101 56-101 124s45 124 101 124 101-56 101-124S294 22 239 22z"/>
  <path d="M321 148c-27 0-48-12-66-37-19 20-53 35-84 35-18 0-33-4-48-12l10-20c12 7 24 10 38 10 30 0 65-18 75-38 2-3 6-6 10-6s8 2 10 6c19 33 39 44 72 38l11-1 2 22-10 1-20 2z"/>
</svg>