<svg xmlns="http://www.w3.org/2000/svg" version="1" viewBox="0 0 539 539">
  <path d="M438 494H101v-22h337v22zm56-56h-22V101h22v337zm-427 0H45V101h22v337zM438 67H101V45h337v22z"/>
  <path d="M528 539h-90c-6 0-11-5-11-11v-90c0-6 5-11 11-11h90c6 0 11 5 11 11v90c0 6-5 11-11 11zm-79-22h68v-68h-68v68zm-348 22H11c-6 0-11-5-11-11v-90c0-6 5-11 11-11h90c6 0 11 5 11 11v90c0 6-5 11-11 11zm-79-22h68v-68H22v68zm506-405h-90c-6 0-11-5-11-11V11c0-6 5-11 11-11h90c6 0 11 5 11 11v90c0 6-5 11-11 11zm-79-22h68V22h-68v68zm-348 22H11c-6 0-11-5-11-11V11C0 5 5 0 11 0h90c6 0 11 5 11 11v90c0 6-5 11-11 11zM22 90h68V22H22v68z"/>
</svg>