<?xml version="1.0" encoding="iso-8859-1"?>
<!-- Generator: Adobe Illustrator 19.0.0, SVG Export Plug-In . SVG Version: 6.00 Build 0)  -->
<svg version="1.1" id="Capa_1" xmlns="http://www.w3.org/2000/svg" xmlns:xlink="http://www.w3.org/1999/xlink" x="0px" y="0px"
	 viewBox="0 0 539.077 539.077" style="enable-background:new 0 0 539.077 539.077;" xml:space="preserve">
<g>
	<g>
		<path d="M438,494.154H101.077v-22.462H438V494.154z M494.154,438h-22.462V101.077h22.462V438z M67.385,438H44.923V101.077h22.462
			V438z M438,67.385H101.077V44.923H438V67.385z"/>
		<path d="M527.846,539.077H438c-6.208,0-11.231-5.023-11.231-11.231V438c0-6.208,5.023-11.231,11.231-11.231h89.846
			c6.208,0,11.231,5.023,11.231,11.231v89.846C539.077,534.054,534.054,539.077,527.846,539.077z M449.231,516.615h67.385v-67.385
			h-67.385V516.615z M101.077,539.077H11.231C5.023,539.077,0,534.054,0,527.846V438c0-6.208,5.023-11.231,11.231-11.231h89.846
			c6.208,0,11.231,5.023,11.231,11.231v89.846C112.308,534.054,107.285,539.077,101.077,539.077z M22.462,516.615h67.385v-67.385
			H22.462V516.615z M527.846,112.308H438c-6.208,0-11.231-5.023-11.231-11.231V11.231C426.769,5.023,431.792,0,438,0h89.846
			c6.208,0,11.231,5.023,11.231,11.231v89.846C539.077,107.285,534.054,112.308,527.846,112.308z M449.231,89.846h67.385V22.462
			h-67.385V89.846z M101.077,112.308H11.231C5.023,112.308,0,107.285,0,101.077V11.231C0,5.023,5.023,0,11.231,0h89.846
			c6.208,0,11.231,5.023,11.231,11.231v89.846C112.308,107.285,107.285,112.308,101.077,112.308z M22.462,89.846h67.385V22.462
			H22.462V89.846z"/>
	</g>
</g>
<g>
</g>
<g>
</g>
<g>
</g>
<g>
</g>
<g>
</g>
<g>
</g>
<g>
</g>
<g>
</g>
<g>
</g>
<g>
</g>
<g>
</g>
<g>
</g>
<g>
</g>
<g>
</g>
<g>
</g>
</svg>
